<svg width="91" height="92" viewBox="0 0 91 92" fill="none" xmlns="http://www.w3.org/2000/svg">
<g clip-path="url(#clip0)">
<path d="M34.1025 67.1728C35.9722 65.9365 38.1643 65.2773 40.4058 65.2773C42.6473 65.2773 44.8394 65.9365 46.7092 67.1728M27.5567 60.627C31.204 57.7098 35.7354 56.1205 40.4058 56.1205C45.0762 56.1205 49.6076 57.7098 53.2549 60.627M21.0109 54.0812L17.7784 50.8487C16.9211 49.9914 16.4394 48.8287 16.4394 47.6162C16.4394 46.4038 16.9211 45.2411 17.7784 44.3838L43.6383 18.5238C44.4956 17.6665 45.6584 17.1849 46.8708 17.1849C48.0832 17.1849 49.246 17.6665 50.1033 18.5238L69.4982 37.9188C70.3555 38.7761 70.8371 39.9388 70.8371 41.1513C70.8371 42.3637 70.3555 43.5264 69.4982 44.3838L59.8007 54.0812" stroke="#9A99A2" stroke-width="2" stroke-linecap="round" stroke-linejoin="round"/>
<path d="M41.3155 72.567C41.8176 73.0691 41.8176 73.8832 41.3155 74.3853C40.8133 74.8874 39.9993 74.8874 39.4972 74.3853C38.9951 73.8832 38.9951 73.0691 39.4972 72.567C39.9993 72.0649 40.8134 72.0649 41.3155 72.567Z" stroke="#9A99A2" stroke-width="2"/>
</g>
<path d="M66.001 47.25C60.0628 47.25 55.251 52.0618 55.251 58C55.251 63.9382 60.0628 68.75 66.001 68.75C71.9392 68.75 76.751 63.9382 76.751 58C76.751 52.0618 71.9392 47.25 66.001 47.25Z" fill="#FF3B30" stroke="#F7F7FA" stroke-width="2"/>
<defs>
<clipPath id="clip0">
<rect width="64" height="64" fill="white" transform="translate(0 46) rotate(-45)"/>
</clipPath>
</defs>
</svg>
